<svg width="135" height="135" viewBox="0 0 135 135" fill="none" xmlns="http://www.w3.org/2000/svg">
<g clip-path="url(#clip0_24_345)">
<path d="M23.9062 0H111.094C124.312 0 135 10.9615 135 24.5192V110.481C135 124.038 124.312 135 111.094 135H23.9062C10.6875 135 0 124.038 0 110.481V24.5192C0 10.9615 10.6875 0 23.9062 0Z" fill="#001E36"/>
<path d="M30.375 94.6731V35.3077C30.375 34.9038 30.5438 34.6731 30.9375 34.6731C31.8938 34.6731 32.7937 34.6731 34.0875 34.6154C35.4375 34.5577 36.8437 34.5577 38.3625 34.5C39.8812 34.4423 41.5125 34.4423 43.2563 34.3846C45 34.3269 46.6875 34.3269 48.375 34.3269C52.9875 34.3269 56.8125 34.9038 59.9625 36.1154C62.775 37.0961 65.3625 38.7115 67.5 40.8461C69.3 42.6923 70.7063 44.9423 71.6063 47.4231C72.45 49.8461 72.9 52.3269 72.9 54.9231C72.9 59.8846 71.775 63.9808 69.525 67.2115C67.275 70.4423 64.125 72.8654 60.4688 74.25C56.6437 75.6923 52.425 76.2115 47.8125 76.2115C46.4625 76.2115 45.5625 76.2115 45 76.1538C44.4375 76.0961 43.65 76.0961 42.5812 76.0961V94.6154C42.6375 95.0192 42.3562 95.3654 41.9625 95.4231C41.9062 95.4231 41.85 95.4231 41.7375 95.4231H31.05C30.6 95.4231 30.375 95.1923 30.375 94.6731ZM42.6375 45.8077V65.1923C43.425 65.25 44.1562 65.3077 44.8312 65.3077H47.8125C50.0063 65.3077 52.2 64.9615 54.2812 64.2692C56.0812 63.75 57.6562 62.6538 58.8937 61.2115C60.075 59.7692 60.6375 57.8077 60.6375 55.2692C60.6938 53.4808 60.2437 51.6923 59.3438 50.1346C58.3875 48.6346 57.0375 47.4807 55.4062 46.8461C53.325 45.9807 51.075 45.6346 48.7687 45.6923C47.3062 45.6923 46.0125 45.6923 44.9438 45.75C43.8188 45.6923 43.0313 45.75 42.6375 45.8077Z" fill="#31A8FF"/>
<path d="M108 61.673C106.313 60.7499 104.513 60.1153 102.6 59.7114C100.519 59.2499 98.4375 58.9614 96.3 58.9614C95.175 58.9037 93.9938 59.0768 92.925 59.3653C92.1938 59.5384 91.575 59.9422 91.1813 60.5191C90.9 60.9807 90.7313 61.5576 90.7313 62.0768C90.7313 62.5961 90.9563 63.1153 91.2938 63.5768C91.8 64.2114 92.475 64.7307 93.2063 65.1345C94.5 65.8268 95.85 66.4614 97.2 67.0384C100.238 68.0768 103.163 69.5191 105.863 71.2499C107.719 72.4614 109.238 74.0768 110.306 76.0384C111.206 77.8845 111.656 79.9038 111.6 81.9807C111.656 84.6922 110.869 87.4037 109.406 89.6537C107.831 91.9614 105.638 93.7499 103.106 94.7884C100.35 95.9999 96.975 96.6345 92.925 96.6345C90.3375 96.6345 87.8063 96.4037 85.275 95.8845C83.3063 95.5384 81.3375 94.9038 79.5375 94.0384C79.1438 93.8076 78.8625 93.4038 78.9188 92.9422V82.9037C78.9188 82.7307 78.975 82.4999 79.1438 82.3845C79.3125 82.2691 79.4813 82.3268 79.65 82.4422C81.8438 83.7691 84.15 84.6922 86.625 85.2691C88.7625 85.8461 91.0125 86.1345 93.2625 86.1345C95.4 86.1345 96.9188 85.8461 97.9313 85.3268C98.8313 84.923 99.45 83.9422 99.45 82.9037C99.45 82.0961 99 81.3461 98.1 80.5961C97.2 79.8461 95.3438 78.9807 92.5875 77.8845C89.7188 76.8461 87.075 75.4614 84.6 73.7307C82.8563 72.4614 81.3938 70.7884 80.325 68.8268C79.425 66.9807 78.975 64.9614 79.0313 62.9422C79.0313 60.4614 79.7063 58.0961 80.9438 55.9614C82.35 53.6538 84.4313 51.8076 86.85 50.6538C89.4938 49.2691 92.8125 48.6345 96.8063 48.6345C99.1125 48.6345 101.475 48.8076 103.781 49.1537C105.469 49.3845 107.1 49.8461 108.619 50.4807C108.844 50.5384 109.069 50.7691 109.181 50.9999C109.238 51.2307 109.294 51.4614 109.294 51.6922V61.0961C109.294 61.3268 109.181 61.5576 109.013 61.673C108.506 61.7884 108.225 61.7884 108 61.673Z" fill="#31A8FF"/>
</g>
<defs>
<clipPath id="clip0_24_345">
<rect width="135" height="135" fill="white"/>
</clipPath>
</defs>
</svg>
