<svg width="135" height="135" viewBox="0 0 135 135" fill="none" xmlns="http://www.w3.org/2000/svg">
<g clip-path="url(#clip0_24_342)">
<path d="M23.9062 0H111.094C124.312 0 135 10.9615 135 24.5192V110.481C135 124.038 124.312 135 111.094 135H23.9062C10.6875 135 0 124.038 0 110.481V24.5192C0 10.9615 10.6875 0 23.9062 0Z" fill="#330000"/>
<path d="M65.25 80.7693H44.325L40.05 94.327C39.9375 94.8462 39.4875 95.1924 38.9812 95.1347H28.4062C27.7875 95.1347 27.6187 94.7885 27.7875 94.0962L45.9 40.6155C46.0687 40.0385 46.2375 39.4039 46.4625 38.7116C46.6875 37.5001 46.8 36.2308 46.8 34.9616C46.7437 34.6732 46.9687 34.3847 47.25 34.327H61.8187C62.2687 34.327 62.4937 34.5001 62.55 34.7885L83.0812 94.2116C83.25 94.8462 83.0812 95.1347 82.5187 95.1347H70.7625C70.3687 95.1924 69.975 94.9039 69.8625 94.5001L65.25 80.7693ZM47.5875 69.0578H61.875C61.5375 67.8462 61.0875 66.4039 60.5812 64.9039C60.075 63.3462 59.5687 61.6732 59.0625 59.9424C58.5 58.1539 57.9937 56.4231 57.4312 54.6347C56.8687 52.8462 56.3625 51.1732 55.9125 49.5001C55.4625 47.8847 55.0687 46.3847 54.675 45.0001H54.5625C54.0562 47.4808 53.4375 49.9616 52.65 52.4424C51.8062 55.2116 50.9625 58.0962 50.0625 60.9808C49.275 63.9231 48.4312 66.6347 47.5875 69.0578ZM95.625 44.4232C93.7687 44.4808 91.9687 43.7308 90.6187 42.4039C89.325 40.9616 88.65 39.0578 88.7062 37.0962C88.65 35.1347 89.3812 33.2885 90.7312 31.9616C92.0812 30.6347 93.8812 29.9424 95.7375 29.9424C97.9312 29.9424 99.6187 30.6347 100.856 31.9616C102.094 33.3462 102.769 35.1924 102.712 37.0962C102.769 39.0578 102.094 40.9616 100.744 42.4039C99.45 43.7885 97.5375 44.5385 95.625 44.4232ZM89.325 94.5001V50.077C89.325 49.5001 89.55 49.2693 90.0562 49.2693H101.194C101.7 49.2693 101.925 49.5578 101.925 50.077V94.5001C101.925 95.1347 101.7 95.4231 101.194 95.4231H90.1687C89.6062 95.4231 89.325 95.077 89.325 94.5001Z" fill="#FF9A00"/>
</g>
<defs>
<clipPath id="clip0_24_342">
<rect width="135" height="135" fill="white"/>
</clipPath>
</defs>
</svg>
