<svg width="50" height="50" viewBox="0 0 50 50" fill="none" xmlns="http://www.w3.org/2000/svg">
<path d="M50 43.0556C50 46.8917 46.8917 50 43.0556 50H6.94444C3.10972 50 0 46.8917 0 43.0556V6.94444C0 3.10833 3.10972 0 6.94444 0H43.0556C46.8917 0 50 3.10833 50 6.94444V43.0556Z" fill="url(#paint0_linear_44_21)"/>
<path d="M39.625 11H10.375C9.47989 11 8.62145 11.3424 7.98851 11.9519C7.35558 12.5614 7 13.388 7 14.25V33.75C7 34.612 7.35558 35.4386 7.98851 36.0481C8.62145 36.6576 9.47989 37 10.375 37H39.625C40.5201 37 41.3786 36.6576 42.0115 36.0481C42.6444 35.4386 43 34.612 43 33.75V14.25C43 13.388 42.6444 12.5614 42.0115 11.9519C41.3786 11.3424 40.5201 11 39.625 11ZM38.815 13.1667L25 22.6675L11.185 13.1667H38.815ZM40.75 33.75C40.75 34.0373 40.6315 34.3129 40.4205 34.516C40.2095 34.7192 39.9234 34.8333 39.625 34.8333H10.375C10.0766 34.8333 9.79048 34.7192 9.5795 34.516C9.36853 34.3129 9.25 34.0373 9.25 33.75V14.4992L24.3475 24.8775C24.538 25.0081 24.7661 25.0783 25 25.0783C25.2339 25.0783 25.462 25.0081 25.6525 24.8775L40.75 14.4992V33.75Z" fill="#171717"/>
<defs>
<linearGradient id="paint0_linear_44_21" x1="-0.252525" y1="25" x2="50.2525" y2="25" gradientUnits="userSpaceOnUse">
<stop stop-color="#B86ADF"/>
<stop offset="0.5" stop-color="#FF6C63"/>
<stop offset="1" stop-color="#FFB147"/>
</linearGradient>
</defs>
</svg>
