<svg width="135" height="135" viewBox="0 0 135 135" fill="none" xmlns="http://www.w3.org/2000/svg">
<path d="M45.0176 135C50.9849 135 56.7079 132.629 60.9275 128.41C65.147 124.19 67.5176 118.467 67.5176 112.5V90H45.0176C39.0502 90 33.3272 92.3705 29.1077 96.5901C24.8881 100.81 22.5176 106.533 22.5176 112.5C22.5176 118.467 24.8881 124.19 29.1077 128.41C33.3272 132.629 39.0502 135 45.0176 135Z" fill="#0ACF83"/>
<path d="M22.5176 67.5C22.5176 61.5326 24.8881 55.8097 29.1077 51.5901C33.3272 47.3705 39.0502 45 45.0176 45H67.5176V90H45.0176C39.0502 90 33.3272 87.6295 29.1077 83.4099C24.8881 79.1903 22.5176 73.4674 22.5176 67.5Z" fill="#A259FF"/>
<path d="M22.5176 22.5C22.5176 16.5357 24.8857 10.8154 29.1015 6.59631C33.3172 2.37724 39.0357 0.00465963 45 0L67.5 0V45H45.0176C39.0502 45 33.3272 42.6295 29.1077 38.4099C24.8881 34.1903 22.5176 28.4674 22.5176 22.5Z" fill="#F24E1E"/>
<path d="M67.5176 0H90.0176C95.9849 0 101.708 2.37053 105.927 6.5901C110.147 10.8097 112.518 16.5326 112.518 22.5C112.518 28.4674 110.147 34.1903 105.927 38.4099C101.708 42.6295 95.9849 45 90.0176 45H67.5176V0Z" fill="#FF7262"/>
<path d="M112.518 67.5C112.518 73.4674 110.147 79.1903 105.927 83.4099C101.708 87.6295 95.9849 90 90.0176 90C84.0502 90 78.3272 87.6295 74.1077 83.4099C69.8881 79.1903 67.5176 73.4674 67.5176 67.5C67.5176 61.5326 69.8881 55.8097 74.1077 51.5901C78.3272 47.3705 84.0502 45 90.0176 45C95.9849 45 101.708 47.3705 105.927 51.5901C110.147 55.8097 112.518 61.5326 112.518 67.5Z" fill="#1ABCFE"/>
</svg>
