<svg width="135" height="135" viewBox="0 0 135 135" fill="none" xmlns="http://www.w3.org/2000/svg">
<g clip-path="url(#clip0_24_328)">
<path d="M82.7719 48.7603L69.2592 61.3322L56.7211 36.0408L63.2095 21.4946C64.897 18.5414 67.5295 18.5752 69.1748 21.4946L82.7719 48.7603Z" fill="#FFA000"/>
<path d="M56.7211 36.0408L69.2592 61.3322L18.7607 108.308L56.7211 36.0408Z" fill="#F57F17"/>
<path d="M97.5501 29.544C99.9632 27.2236 102.461 28.0168 103.098 31.3032L116.243 107.684L72.6721 133.84C71.1534 134.684 67.1034 135.046 67.1034 135.046C67.1034 135.046 63.4162 134.608 62.0114 133.781L18.7607 108.308L97.5501 29.544Z" fill="#FFCA28"/>
<path d="M56.7211 36.0408L18.765 108.308L35.6695 2.69155C36.2939 -0.599077 38.167 -0.915484 39.8377 1.98702L56.7211 36.0408Z" fill="#FFA000"/>
</g>
<defs>
<clipPath id="clip0_24_328">
<rect width="135" height="135" fill="white"/>
</clipPath>
</defs>
</svg>
