<svg width="135" height="135" viewBox="0 0 135 135" fill="none" xmlns="http://www.w3.org/2000/svg">
<mask id="mask0_24_303" style="mask-type:luminance" maskUnits="userSpaceOnUse" x="12" y="0" width="110" height="135">
<path d="M121.674 62.2943L85.3349 98.6467L121.674 134.999H80.1491L43.7967 98.6467L80.1491 62.2943H121.674ZM80.1491 0.00012207L12.6561 67.4931L33.4252 88.2622L121.674 0.00012207H80.1491Z" fill="white"/>
</mask>
<g mask="url(#mask0_24_303)">
<path d="M43.8097 98.6467L64.5658 119.416L121.674 62.2943H80.1491L43.8097 98.6467Z" fill="#39CEFD"/>
</g>
<mask id="mask1_24_303" style="mask-type:luminance" maskUnits="userSpaceOnUse" x="12" y="0" width="110" height="135">
<path d="M121.674 62.2943L85.3349 98.6467L121.674 134.999H80.1491L43.7967 98.6467L80.1491 62.2943H121.674ZM80.1491 0.00012207L12.6561 67.4931L33.4252 88.2622L121.674 0.00012207H80.1491Z" fill="white"/>
</mask>
<g mask="url(#mask1_24_303)">
<path d="M80.1491 0.00012207H121.674L33.4252 88.2622L12.6561 67.4931L80.1491 0.00012207Z" fill="#39CEFD"/>
</g>
<mask id="mask2_24_303" style="mask-type:luminance" maskUnits="userSpaceOnUse" x="12" y="0" width="110" height="135">
<path d="M121.674 62.2943L85.3349 98.6467L121.674 134.999H80.1491L43.7967 98.6467L80.1491 62.2943H121.674ZM80.1491 0.00012207L12.6561 67.4931L33.4252 88.2622L121.674 0.00012207H80.1491Z" fill="white"/>
</mask>
<g mask="url(#mask2_24_303)">
<path d="M64.5658 119.416L80.1491 134.986H121.674L85.3349 98.6467L64.5658 119.416Z" fill="#03569B"/>
</g>
<mask id="mask3_24_303" style="mask-type:luminance" maskUnits="userSpaceOnUse" x="12" y="0" width="110" height="135">
<path d="M121.674 62.2943L85.3349 98.6467L121.674 134.999H80.1491L43.7967 98.6467L80.1491 62.2943H121.674ZM80.1491 0.00012207L12.6561 67.4931L33.4252 88.2622L121.674 0.00012207H80.1491Z" fill="white"/>
</mask>
<g mask="url(#mask3_24_303)">
<path d="M95.3685 108.745L85.3349 98.6467L64.5658 119.416L95.3685 108.745Z" fill="url(#paint0_linear_24_303)"/>
</g>
<mask id="mask4_24_303" style="mask-type:luminance" maskUnits="userSpaceOnUse" x="12" y="0" width="110" height="135">
<path d="M121.674 62.2943L85.3349 98.6467L121.674 134.999H80.1491L43.7967 98.6467L80.1491 62.2943H121.674ZM80.1491 0.00012207L12.6561 67.4931L33.4252 88.2622L121.674 0.00012207H80.1491Z" fill="white"/>
</mask>
<g mask="url(#mask4_24_303)">
<path d="M43.8074 98.6396L64.577 77.8699L85.3479 98.6396L64.577 119.409L43.8074 98.6396Z" fill="#16B9FD"/>
</g>
<path d="M121.674 62.2943L85.3349 98.6467L121.674 134.999H80.1491L43.7967 98.6467L80.1491 62.2943H121.674ZM80.1491 0.00012207L12.6561 67.4931L33.4252 88.2622L121.674 0.00012207H80.1491Z" fill="url(#paint1_radial_24_303)"/>
<defs>
<linearGradient id="paint0_linear_24_303" x1="70.6269" y1="123.424" x2="86.0952" y2="107.956" gradientUnits="userSpaceOnUse">
<stop stop-color="#1A237E" stop-opacity="0.4"/>
<stop offset="1" stop-color="#1A237E" stop-opacity="0"/>
</linearGradient>
<radialGradient id="paint1_radial_24_303" cx="0" cy="0" r="1" gradientUnits="userSpaceOnUse" gradientTransform="translate(15.7188 9.20126) scale(165.155 165.155)">
<stop stop-color="white" stop-opacity="0.1"/>
<stop offset="1" stop-color="white" stop-opacity="0"/>
</radialGradient>
</defs>
</svg>
