<svg width="185" height="185" viewBox="0 0 185 185" fill="none" xmlns="http://www.w3.org/2000/svg">
<path fill-rule="evenodd" clip-rule="evenodd" d="M88.272 12.6648C90.8889 11.1964 94.111 11.1964 96.7241 12.6648C109.655 19.9222 148.567 41.7676 161.501 49.025C164.118 50.4896 165.729 53.2029 165.729 56.1398C165.729 70.6546 165.729 114.342 165.729 128.856C165.729 131.793 164.118 134.507 161.501 135.975C148.57 143.232 109.659 165.078 96.7241 172.335C94.1072 173.804 90.8851 173.804 88.272 172.335C75.3412 165.078 36.4296 143.232 23.495 135.975C20.8819 134.507 19.2708 131.797 19.2708 128.86C19.2708 114.345 19.2708 70.6584 19.2708 56.1437C19.2708 53.2068 20.8819 50.4934 23.4988 49.025C36.4257 41.7676 75.3451 19.9222 88.272 12.6648Z" fill="#00549D"/>
<path fill-rule="evenodd" clip-rule="evenodd" d="M20.4425 132.599C19.4173 131.227 19.2708 129.924 19.2708 128.17C19.2708 113.74 19.2708 70.3038 19.2708 55.87C19.2708 52.9485 20.878 50.2506 23.4873 48.7937C36.3718 41.5787 75.1524 19.8605 88.0369 12.6417C90.6461 11.1809 94.1804 11.2118 96.7897 12.6725C109.674 19.8875 148.324 41.4207 161.208 48.6357C162.249 49.2215 163.043 49.9269 163.752 50.8557L20.4425 132.599Z" fill="#0086D4"/>
<path fill-rule="evenodd" clip-rule="evenodd" d="M92.5 38.5416C122.281 38.5416 146.458 62.7188 146.458 92.5C146.458 122.281 122.281 146.458 92.5 146.458C62.7189 146.458 38.5417 122.281 38.5417 92.5C38.5417 62.7188 62.7189 38.5416 92.5 38.5416ZM92.5 65.5208C107.389 65.5208 119.479 77.6075 119.479 92.5C119.479 107.389 107.389 119.479 92.5 119.479C77.6114 119.479 65.5209 107.389 65.5209 92.5C65.5209 77.6075 77.6075 65.5208 92.5 65.5208Z" fill="white"/>
<path fill-rule="evenodd" clip-rule="evenodd" d="M163.744 50.8943C165.733 52.7558 165.694 55.5617 165.694 57.7701C165.694 72.3967 165.571 113.999 165.729 128.625C165.745 130.151 165.24 131.759 164.484 132.969L90.9313 92.5L163.744 50.8943Z" fill="#0075C0"/>
<path fill-rule="evenodd" clip-rule="evenodd" d="M119.479 80.9375H127.188V104.062H119.479V80.9375ZM146.458 80.9375H154.167V104.062H146.458V80.9375Z" fill="white"/>
<path fill-rule="evenodd" clip-rule="evenodd" d="M111.771 88.6459H134.896V96.3542H111.771V88.6459ZM138.75 88.6459H161.875V96.3542H138.75V88.6459Z" fill="white"/>
</svg>
