<svg width="50" height="50" viewBox="0 0 50 50" fill="none" xmlns="http://www.w3.org/2000/svg">
<path d="M50 43.0556C50 46.8917 46.8917 50 43.0556 50H6.94444C3.10972 50 0 46.8917 0 43.0556V6.94444C0 3.10833 3.10972 0 6.94444 0H43.0556C46.8917 0 50 3.10833 50 6.94444V43.0556Z" fill="url(#paint0_linear_24_407)"/>
<path d="M8.33337 18.0557H15.2778V41.6668H8.33337V18.0557ZM11.7848 15.2779H11.7459C9.67365 15.2779 8.33337 13.7335 8.33337 11.8043C8.33337 9.8335 9.71532 8.3335 11.825 8.3335C13.9375 8.3335 15.2389 9.8335 15.2778 11.8043C15.2778 13.7321 13.9375 15.2779 11.7848 15.2779ZM41.6667 41.6668H34.7223V29.0293C34.7223 25.9765 33.0209 23.8932 30.2889 23.8932C28.2042 23.8932 27.0764 25.2988 26.5292 26.6571C26.3292 27.1432 26.3889 28.4877 26.3889 29.1668V41.6668H19.4445V18.0557H26.3889V21.689C27.3903 20.1391 28.9584 18.0557 32.9695 18.0557C37.9389 18.0557 41.6653 21.1807 41.6653 28.1585L41.6667 41.6668Z" fill="#171717"/>
<defs>
<linearGradient id="paint0_linear_24_407" x1="-0.252525" y1="25" x2="50.2525" y2="25" gradientUnits="userSpaceOnUse">
<stop stop-color="#B86ADF"/>
<stop offset="0.5" stop-color="#FF6C63"/>
<stop offset="1" stop-color="#FFB147"/>
</linearGradient>
</defs>
</svg>
