<svg width="50" height="50" viewBox="0 0 50 50" fill="none" xmlns="http://www.w3.org/2000/svg">
<path d="M50 43.0556C50 46.8917 46.8917 50 43.0556 50H6.94444C3.10972 50 0 46.8917 0 43.0556V6.94444C0 3.10833 3.10972 0 6.94444 0H43.0556C46.8917 0 50 3.10833 50 6.94444V43.0556Z" fill="url(#paint0_linear_24_412)"/>
<path fill-rule="evenodd" clip-rule="evenodd" d="M7.00665 16.188C7.48797 26.0341 21.1446 38.5578 30.3904 41.4762C36.5901 43.4241 45.8215 39.5707 42.172 35.9723L36.3961 30.2842C35.5197 29.4129 34.0973 29.5192 33.2424 30.355L29.9378 33.6276C22.8113 29.8025 19.8228 26.785 15.9075 19.8077L19.2265 16.5351C20.0814 15.6922 20.1748 14.2896 19.2984 13.4254L13.5297 7.73737C10.3184 4.55687 6.82705 12.4692 7.00665 16.188Z" fill="#171717"/>
<path fill-rule="evenodd" clip-rule="evenodd" d="M7.00665 16.188L15.9147 19.8006L19.2337 16.5422C20.0886 15.6922 20.182 14.2896 19.3056 13.4254L13.5368 7.73737C10.3184 4.55687 6.82705 12.4692 7.00665 16.188Z" fill="#171717"/>
<path fill-rule="evenodd" clip-rule="evenodd" d="M30.3904 41.4762C36.5901 43.4241 45.8215 39.5707 42.172 35.9723L36.3961 30.2842C35.5197 29.4129 34.0973 29.5192 33.2424 30.355L29.9378 33.6276L30.3832 41.4691L30.3904 41.4762Z" fill="#171717"/>
<defs>
<linearGradient id="paint0_linear_24_412" x1="-0.252525" y1="25" x2="50.2525" y2="25" gradientUnits="userSpaceOnUse">
<stop stop-color="#B86ADF"/>
<stop offset="0.5" stop-color="#FF6C63"/>
<stop offset="1" stop-color="#FFB147"/>
</linearGradient>
</defs>
</svg>
